# xmcd
#
# Track frame offsets: 
#        150
#        6377
#        19482
#        33835
#        46207
#        69590
#        93440
#        121807
#        140442
#        152437
#
# Disc length: 2335 seconds
#
# Revision: 1
# Processed by: cddbd v1.5.2PL0 Copyright (c) Steve Scherf et al.
# Submitted via: ExactAudioCopy v1.0b2
#
DISCID=7a091d0a
DTITLE=Sam Cooke - Live At The Harlem Square Club (1963)
DYEAR=1963
DGENRE=Soul
TTITLE0=Soul Twist - Introduction
TTITLE1=Feel It (Don't Fight It)
TTITLE2=Chain Gang
TTITLE3=Cupid
TTITLE4=It's All Right - For Sentimental Reasons
TTITLE5=Twistin' The Night Away
TTITLE6=Somebody Have Mercy
TTITLE7=Bring It On Home To Me
TTITLE8=Nothing Can Change This Love
TTITLE9=Having A Party
EXTD=
EXTT0=
EXTT1=
EXTT2=
EXTT3=
EXTT4=
EXTT5=
EXTT6=
EXTT7=
EXTT8=
EXTT9=
PLAYORDER=
